<svg xmlns="http://www.w3.org/2000/svg" width="14" height="16"><path fill-rule="evenodd" fill="#EFEBE4" d="M11.5 15.999h-9a2.5 2.5 0 0 1-2.5-2.5v-11a2.5 2.5 0 0 1 2.5-2.5h9a2.5 2.5 0 0 1 2.5 2.5v11a2.5 2.5 0 0 1-2.5 2.5zM7 3.996a3.998 3.998 0 0 0-3.996 4.001c0 2.208 1.789 4 3.996 4a3.998 3.998 0 0 0 3.995-4A3.998 3.998 0 0 0 7 3.996zm5-1.997h-2v2h2v-2zm1 7v-2h-1v.277c-.016-.009-.034-.012-.05-.021.015.165.047.325.047.494 0 2.898-2.237 5.247-4.997 5.247s-4.998-2.349-4.998-5.247c0-.169.033-.329.047-.494-.015.009-.034.012-.049.021v-.277H1v6a2 2 0 0 0 2 2h8a2 2 0 0 0 2-2v-4z"/></svg>