<svg xmlns="http://www.w3.org/2000/svg" width="16" height="13"><path fill-rule="evenodd" fill="#EFEBE4" d="M16 1.495l-1.5 1.497v.249c0 .274-.044.535-.108.788-.035 2.059-.693 4.789-3.392 6.944-5.311 4.237-11 .498-11 .498 4.5 0 4.5-1.497 4.5-1.497-1 0-3-1.994-3-1.994.5.498 1.5 0 1.5 0C.5 6.483.5 4.987.5 4.987c.5.498 1.5 0 1.5 0C-.5 2.992 1 .498 1 .498c.5 2.494 7 3.491 7 3.491l.083-.041C8.032 3.72 8 3.235 8 2.992 8 1.201 9.455-.001 11.25-.001a3.23 3.23 0 0 1 2.458 1.143L14 .996l1.5-.997-1 1.995 1.5-.499z"/></svg>