<svg 
 xmlns="http://www.w3.org/2000/svg"
 xmlns:xlink="http://www.w3.org/1999/xlink"
 width="16px" height="13px">
<path fill-rule="evenodd"  fill="rgb(239, 235, 228)"
 d="M16.000,1.495 L14.500,2.992 C14.500,2.992 14.500,2.856 14.500,3.241 C14.500,3.515 14.456,3.776 14.392,4.029 C14.357,6.088 13.699,8.818 11.000,10.973 C5.689,15.210 -0.000,11.471 -0.000,11.471 C4.500,11.471 4.500,9.974 4.500,9.974 C3.500,9.974 1.500,7.980 1.500,7.980 C2.000,8.478 3.000,7.980 3.000,7.980 C0.500,6.483 0.500,4.987 0.500,4.987 C1.000,5.485 2.000,4.987 2.000,4.987 C-0.500,2.992 1.000,0.498 1.000,0.498 C1.500,2.992 8.000,3.989 8.000,3.989 L8.083,3.948 C8.032,3.720 8.000,3.235 8.000,2.992 C8.000,1.201 9.455,-0.001 11.250,-0.001 C12.238,-0.001 13.112,0.448 13.708,1.142 L14.000,0.996 L15.500,-0.001 L14.500,1.994 L16.000,1.495 Z"/>
</svg>